<svg width="0" height="0">
	<defs>
		<symbol viewbox = "0 0 46 46" id = "googlebtn_google_light_normal_ios" > 
		    <!-- Generator: Sketch 3.3.3 (12081) - http://www.bohemiancoding.com/sketch -->
		    <title>btn_google_light_normal_ios</title>
		    <desc>Created with Sketch.</desc>
		    <defs>
		        <filter x="-50%" y="-50%" width="200%" height="200%" filterUnits="objectBoundingBox" id="filter-1">
		            <feOffset dx="0" dy="1" in="SourceAlpha" result="shadowOffsetOuter1"></feOffset>
		            <feGaussianBlur stdDeviation="0.5" in="shadowOffsetOuter1" result="shadowBlurOuter1"></feGaussianBlur>
		            <feColorMatrix values="0 0 0 0 0   0 0 0 0 0   0 0 0 0 0  0 0 0 0.168 0" in="shadowBlurOuter1" type="matrix" result="shadowMatrixOuter1"></feColorMatrix>
		            <feOffset dx="0" dy="0" in="SourceAlpha" result="shadowOffsetOuter2"></feOffset>
		            <feGaussianBlur stdDeviation="0.5" in="shadowOffsetOuter2" result="shadowBlurOuter2"></feGaussianBlur>
		            <feColorMatrix values="0 0 0 0 0   0 0 0 0 0   0 0 0 0 0  0 0 0 0.084 0" in="shadowBlurOuter2" type="matrix" result="shadowMatrixOuter2"></feColorMatrix>
		            <feMerge>
		                <feMergeNode in="shadowMatrixOuter1"></feMergeNode>
		                <feMergeNode in="shadowMatrixOuter2"></feMergeNode>
		                <feMergeNode in="SourceGraphic"></feMergeNode>
		            </feMerge>
		        </filter>
		    </defs>
		    <g id="Google-Button" stroke="none" stroke-width="1" fill="none" fill-rule="evenodd" sketch:type="MSPage">
		        <g id="9-PATCH" sketch:type="MSArtboardGroup" transform="translate(-608.000000, -160.000000)"></g>
		        <g id="btn_google_light_normal" sketch:type="MSArtboardGroup" transform="translate(-1.000000, -1.000000)">
		            
		            <g id="logo_googleg_48dp" sketch:type="MSLayerGroup" transform="translate(15.000000, 15.000000)">
		                <path d="M17.64,9.20454545 C17.64,8.56636364 17.5827273,7.95272727 17.4763636,7.36363636 L9,7.36363636 L9,10.845 L13.8436364,10.845 C13.635,11.97 13.0009091,12.9231818 12.0477273,13.5613636 L12.0477273,15.8195455 L14.9563636,15.8195455 C16.6581818,14.2527273 17.64,11.9454545 17.64,9.20454545 L17.64,9.20454545 Z" id="Shape" fill="#4285F4" sketch:type="MSShapeGroup"></path>
		                <path d="M9,18 C11.43,18 13.4672727,17.1940909 14.9563636,15.8195455 L12.0477273,13.5613636 C11.2418182,14.1013636 10.2109091,14.4204545 9,14.4204545 C6.65590909,14.4204545 4.67181818,12.8372727 3.96409091,10.71 L0.957272727,10.71 L0.957272727,13.0418182 C2.43818182,15.9831818 5.48181818,18 9,18 L9,18 Z" id="Shape" fill="#34A853" sketch:type="MSShapeGroup"></path>
		                <path d="M3.96409091,10.71 C3.78409091,10.17 3.68181818,9.59318182 3.68181818,9 C3.68181818,8.40681818 3.78409091,7.83 3.96409091,7.29 L3.96409091,4.95818182 L0.957272727,4.95818182 C0.347727273,6.17318182 0,7.54772727 0,9 C0,10.4522727 0.347727273,11.8268182 0.957272727,13.0418182 L3.96409091,10.71 L3.96409091,10.71 Z" id="Shape" fill="#FBBC05" sketch:type="MSShapeGroup"></path>
		                <path d="M9,3.57954545 C10.3213636,3.57954545 11.5077273,4.03363636 12.4404545,4.92545455 L15.0218182,2.34409091 C13.4631818,0.891818182 11.4259091,0 9,0 C5.48181818,0 2.43818182,2.01681818 0.957272727,4.95818182 L3.96409091,7.29 C4.67181818,5.16272727 6.65590909,3.57954545 9,3.57954545 L9,3.57954545 Z" id="Shape" fill="#EA4335" sketch:type="MSShapeGroup"></path>
		                <path d="M0,0 L18,0 L18,18 L0,18 L0,0 Z" id="Shape" sketch:type="MSShapeGroup"></path>
		            </g>
		            <g id="handles_square" sketch:type="MSLayerGroup"></g>
		        </g>
		    </g>
		</symbol>

	</defs>
</svg>


<svg width="0" height="0">
	<defs>
		<symbol viewbox = "0 0 32 32" id = "amazon_aws-icon" > <path d="M15.63 31.388l-7.135-2.56V18.373l7.135 2.43zm1.3 0l7.135-2.56V18.373l-7.135 2.432zm-7.7-13.8l7.2-2.033 6.696 2.16-6.696 2.273zm-2.092-.8L0 14.22V3.75l7.135 2.43zm1.307 0l7.135-2.56V3.75L8.443 6.192zm-7.7-13.8l7.2-2.043 6.696 2.16-6.696 2.273zm23.052 13.8l-7.135-2.56V3.75l7.135 2.43zm1.3 0l7.135-2.56V3.75l-7.135 2.43zm-7.7-13.8l7.2-2.033 6.696 2.16-6.696 2.273z" fill="#f90" fill-rule="evenodd"/></symbol>


	</defs>
</svg>
<svg width="0" height="0">
	<defs>
		<symbol viewbox = "123.5 281.88608274 778.8 460.11391726" id = "amazon-web-services-4" > <path d="m344.4 449.1c0 9.4 1.1 17.1 2.8 22.7a141 141 0 0 0 8.2 18.5 10.6 10.6 0 0 1 1.8 5.8c0 2.6-1.5 5.2-4.9 7.7l-16 10.8a12.5 12.5 0 0 1 -6.7 2.3c-2.5 0-5.1-1.3-7.6-3.6a81.7 81.7 0 0 1 -9.2-12c-2.6-4.4-5.2-9.3-8-15.1q-29.9 35.3-75.1 35.3c-21.4 0-38.5-6.2-51-18.5s-18.9-28.6-18.9-49.1 7.6-39.4 23.2-52.7 36.3-19.9 62.6-19.9a199 199 0 0 1 27.1 2c9.4 1.3 19.1 3.3 29.3 5.6v-18.6c0-19.5-4.1-33-12-41s-21.9-11.7-41.6-11.7a116.2 116.2 0 0 0 -27.6 3.3 205.5 205.5 0 0 0 -27.6 8.7 68.7 68.7 0 0 1 -8.9 3.3 16.9 16.9 0 0 1 -4.1.8c-3.6 0-5.4-2.6-5.4-8v-12.5c0-4.1.5-7.2 1.8-8.9s3.6-3.6 7.2-5.4a142.4 142.4 0 0 1 32.1-11.5 152 152 0 0 1 39.9-4.9c30.4 0 52.6 6.9 66.9 20.7s21.2 34.8 21.2 63v82.9zm-103.7 38.9a81.7 81.7 0 0 0 26.3-4.7c9.2-3 17.4-8.7 24.3-16.3a40.7 40.7 0 0 0 8.7-16.4 94 94 0 0 0 2.5-22.3v-10.7a228.2 228.2 0 0 0 -23.5-4.4 195.7 195.7 0 0 0 -24-1.5c-17.1 0-29.6 3.3-38 10.2s-12.5 16.7-12.5 29.5 3 20.9 9.4 27.1 15.1 9.5 26.8 9.5zm205.1 27.6c-4.6 0-7.6-.8-9.7-2.6s-3.8-5.1-5.3-10l-60.1-197.7c-1.5-5.1-2.3-8.5-2.3-10.3 0-4 2.1-6.3 6.2-6.3h25c4.9 0 8.2.7 10 2.5s3.5 5.1 5.1 10l42.9 169.4 39.8-169.4c1.3-5.1 2.8-8.5 4.9-10s5.6-2.5 10.2-2.5h20.4c4.9 0 8.2.7 10.3 2.5s3.8 5.1 4.8 10l40.4 171.4 44.2-171.4c1.5-5.1 3.3-8.5 5.1-10s5.3-2.5 9.9-2.5h23.8c4.1 0 6.4 2 6.4 6.3a32.6 32.6 0 0 1 -.5 4.1 41.3 41.3 0 0 1 -1.8 6.4l-61.6 197.8c-1.5 5.1-3.3 8.4-5.4 10s-5.3 2.5-9.7 2.5h-21.9c-4.9 0-8.2-.7-10.2-2.5s-3.9-5.1-4.9-10.3l-39.6-165-39.3 164.8c-1.3 5.1-2.8 8.4-4.9 10.2s-5.6 2.6-10.2 2.6zm328.3 6.9a167.8 167.8 0 0 1 -39.4-4.6c-12.7-3.1-22.7-6.4-29.3-10.2-4.1-2.4-6.9-4.9-8-7.2a18.6 18.6 0 0 1 -1.5-7.2v-13c0-5.4 2-8 5.9-8a15.4 15.4 0 0 1 4.6.8c1.5.5 3.8 1.5 6.4 2.6a135.8 135.8 0 0 0 28.1 8.9 148.7 148.7 0 0 0 30.4 3.1c16 0 28.6-2.8 37.2-8.4s13.3-13.9 13.3-24.4a25.1 25.1 0 0 0 -6.9-17.9c-4.6-4.8-13.3-9.2-25.8-13.3l-37-11.5c-18.7-5.9-32.4-14.6-40.9-26.1a61 61 0 0 1 -12.7-37.1c0-10.7 2.3-20.2 6.9-28.4a64.3 64.3 0 0 1 18.3-20.9 82.2 82.2 0 0 1 26.6-13.4 113.8 113.8 0 0 1 32.2-4.3 140.1 140.1 0 0 1 17.1 1c5.9.8 11.2 1.8 16.6 2.8s10 2.6 14.6 4.1a64 64 0 0 1 10.7 4.6c3.6 2.1 6.1 4.1 7.7 6.4a14.3 14.3 0 0 1 2.3 8.5v12c0 5.4-2.1 8.2-5.9 8.2-2.1 0-5.4-1-9.7-3.1-14.6-6.6-30.9-10-49.1-10-14.5 0-26 2.3-33.9 7.2s-12 12.3-12 22.8a24 24 0 0 0 7.6 18.1c5.1 4.9 14.6 9.8 28.1 14.1l36.3 11.5c18.4 5.9 31.7 14.1 39.6 24.6a58 58 0 0 1 11.7 35.8 66.5 66.5 0 0 1 -6.6 29.7 68.5 68.5 0 0 1 -18.7 22.5c-7.9 6.4-17.3 11-28.3 14.3a120.7 120.7 0 0 1 -36.5 5.4z" fill="#252f3e"/><path d="m822.3 646.8c-84 62.2-206.1 95.2-311.1 95.2-147.1 0-279.7-54.5-379.8-145.1-7.9-7.1-.8-16.8 8.7-11.2 108.3 62.9 241.9 101 380.1 101 93.2 0 195.6-19.4 289.9-59.3 14-6.4 26 9.2 12.2 19.4zm35-39.9c-10.7-13.8-71-6.6-98.3-3.3-8.2 1-9.5-6.1-2.1-11.5 48.1-33.8 127-24.1 136.2-12.8s-2.6 90.6-47.5 128.4c-6.9 5.9-13.6 2.8-10.5-4.8 10.2-25.4 33-82.4 22.2-96z" fill="#f90"/></symbol>


	</defs>
</svg>

<svg width="0" height="0">
	<defs>
		<symbol viewbox = "0 0 64 64" id = "email" > 
		<path id="Mail" d="M58.0034485,8H5.9965506c-3.3136795,0-5.9999995,2.6862001-5.9999995,6v36c0,3.3137016,2.6863203,6,5.9999995,6
			h52.006897c3.3137016,0,6-2.6862984,6-6V14C64.0034485,10.6862001,61.3171501,8,58.0034485,8z M62.0034485,49.1108017
			L43.084549,30.1919994l18.9188995-12.0555992V49.1108017z M5.9965506,10h52.006897c2.2056007,0,4,1.7943001,4,4v1.7664003
			L34.4677505,33.3134003c-1.4902,0.9492989-3.3935013,0.9199982-4.8495998-0.0703011L1.9965508,14.4694996V14
			C1.9965508,11.7943001,3.7910507,10,5.9965506,10z M1.9965508,16.8852005L21.182251,29.9251003L1.9965508,49.1108017V16.8852005z
			 M58.0034485,54H5.9965506c-1.6473999,0-3.0638998-1.0021019-3.6760998-2.4278984l20.5199013-20.5200024l5.6547985,3.843401
			c1.0859013,0.7383003,2.3418007,1.1083984,3.5995998,1.1083984c1.1953011,0,2.3925018-0.3339996,3.4463005-1.0048981
			l5.8423996-3.7230015l20.2961006,20.2961025C61.0673485,52.9978981,59.6508713,54,58.0034485,54z"/>
		</symbol>

	</defs>
</svg>
<svg width="0" height="0">
	<defs>
		<symbol viewbox = "0 0 150 150" id = "google2" > <style type="text/css">
			.st0{fill:#1A73E8;}
			.st1{fill:#EA4335;}
			.st2{fill:#4285F4;}
			.st3{fill:#FBBC04;}
			.st4{fill:#34A853;}
			.st5{fill:#4CAF50;}
			.st6{fill:#1E88E5;}
			.st7{fill:#E53935;}
			.st8{fill:#C62828;}
			.st9{fill:#FBC02D;}
			.st10{fill:#1565C0;}
			.st11{fill:#2E7D32;}
			.st12{fill:#F6B704;}
			.st13{fill:#E54335;}
			.st14{fill:#4280EF;}
			.st15{fill:#34A353;}
			.st16{clip-path:url(#SVGID_2_);}
			.st17{fill:#188038;}
			.st18{opacity:0.2;fill:#FFFFFF;enable-background:new    ;}
			.st19{opacity:0.3;fill:#0D652D;enable-background:new    ;}
			.st20{clip-path:url(#SVGID_4_);}
			.st21{opacity:0.3;fill:url(#_45_shadow_1_);enable-background:new    ;}
			.st22{clip-path:url(#SVGID_6_);}
			.st23{fill:#FA7B17;}
			.st24{opacity:0.3;fill:#174EA6;enable-background:new    ;}
			.st25{opacity:0.3;fill:#A50E0E;enable-background:new    ;}
			.st26{opacity:0.3;fill:#E37400;enable-background:new    ;}
			.st27{fill:url(#Finish_mask_1_);}
			.st28{fill:#FFFFFF;}
			.st29{fill:#0C9D58;}
			.st30{opacity:0.2;fill:#004D40;enable-background:new    ;}
			.st31{opacity:0.2;fill:#3E2723;enable-background:new    ;}
			.st32{fill:#FFC107;}
			.st33{opacity:0.2;fill:#1A237E;enable-background:new    ;}
			.st34{opacity:0.2;}
			.st35{fill:#1A237E;}
			.st36{fill:url(#SVGID_7_);}
			.st37{fill:#FBBC05;}
			.st38{clip-path:url(#SVGID_9_);fill:#E53935;}
			.st39{clip-path:url(#SVGID_11_);fill:#FBC02D;}
			.st40{clip-path:url(#SVGID_13_);fill:#E53935;}
			.st41{clip-path:url(#SVGID_15_);fill:#FBC02D;}
		</style><g><path class="st14" d="M120,76.1c0-3.1-0.3-6.3-0.8-9.3H75.9v17.7h24.8c-1,5.7-4.3,10.7-9.2,13.9l14.8,11.5   C115,101.8,120,90,120,76.1L120,76.1z"/><path class="st15" d="M75.9,120.9c12.4,0,22.8-4.1,30.4-11.1L91.5,98.4c-4.1,2.8-9.4,4.4-15.6,4.4c-12,0-22.1-8.1-25.8-18.9   L34.9,95.6C42.7,111.1,58.5,120.9,75.9,120.9z"/><path class="st12" d="M50.1,83.8c-1.9-5.7-1.9-11.9,0-17.6L34.9,54.4c-6.5,13-6.5,28.3,0,41.2L50.1,83.8z"/><path class="st13" d="M75.9,47.3c6.5-0.1,12.9,2.4,17.6,6.9L106.6,41C98.3,33.2,87.3,29,75.9,29.1c-17.4,0-33.2,9.8-41,25.3   l15.2,11.8C53.8,55.3,63.9,47.3,75.9,47.3z"/></g></symbol>

	</defs>
</svg>
<svg width="0" height="0">
	<defs>
		<symbol viewbox = "0 0 1781 2466.8" id = "firestore" > 
		<style type="text/css">
			.st0{fill:#FFA000;}
			.st1{fill:#F57F17;}
			.st2{fill:#FFCA28;}
		</style>
		<path class="st0" d="M1169.4,891l-246.7,229.7l-229-462.1L812,392.9c29.9-53,78.8-53.7,108.7,0L1169.4,891z"/>
		<path class="st1" d="M922.8,1120.6L0,1978.9L693.8,658.6L922.8,1120.6z"/>
		<path class="st2" d="M1439.9,539.7c44.2-42.1,89.7-27.9,101.2,31.9L1781,1967.3L985.3,2445c-27.9,15.6-101.9,21.7-101.9,21.7
			s-67.3-8.2-93.1-22.4L0,1978.9L1439.9,539.7z"/>
		<path class="st0" d="M693.8,658.6L0,1978.9L309.2,49.1c11.6-59.8,45.5-65.9,76.1-12.9L693.8,658.6z"/>
		</symbol>

	</defs>
</svg>